<svg width="1517" height="297" viewBox="0 0 1517 297" fill="none" xmlns="http://www.w3.org/2000/svg">
<path d="M830.418 12.5167H875.928L978.327 225.165H933.223L878.265 189.383H836.08L776.239 225.165H731L830.418 12.5167ZM899.361 153.874L853.58 57.2776V153.874H899.361Z" fill="white" fill-opacity="0.8"/>
<path d="M830.418 12.5167H875.928L978.327 225.165H933.223L878.265 189.383H836.08L776.239 225.165H731L830.418 12.5167ZM899.361 153.874L853.58 57.2776V153.874H899.361Z" fill="url(#paint0_linear_2032_39)" fill-opacity="0.6"/>
<path d="M1025.33 245.3C1029.48 248.022 1034 250.425 1038.87 252.511C1043.75 254.597 1048.8 256.321 1054.04 257.681C1059.37 259.042 1064.79 260.039 1070.3 260.674C1075.8 261.4 1081.27 261.763 1086.68 261.763C1105.11 261.763 1119.28 257.772 1129.21 249.79C1139.24 241.899 1144.25 230.017 1144.25 214.145V208.703C1140.73 211.152 1136.75 213.419 1132.33 215.505C1128 217.501 1123.3 219.224 1118.24 220.675C1113.28 222.126 1107.99 223.26 1102.4 224.076C1096.89 224.802 1091.29 225.165 1085.6 225.165C1073.41 225.165 1062.48 223.396 1052.82 219.859C1043.25 216.231 1035.12 210.97 1028.44 204.077C1021.85 197.093 1016.79 188.522 1013.27 178.363C1009.75 168.205 1007.99 156.595 1007.99 143.534V64.6244H1047.95V132.378C1047.95 151.788 1051.6 166.119 1058.92 175.37C1066.32 184.531 1077.97 189.111 1093.86 189.111C1105.06 189.111 1114.95 187.161 1123.53 183.261C1132.19 179.27 1139.1 174.191 1144.25 168.023V64.6244H1184.34V206.798C1184.34 222.126 1182.17 235.414 1177.84 246.661C1173.51 257.999 1167.19 267.386 1158.88 274.824C1150.66 282.261 1140.55 287.794 1128.54 291.422C1116.53 295.141 1102.89 297 1087.63 297C1072.73 297 1058.83 295.413 1045.91 292.238C1033 289.064 1021.17 284.755 1010.43 279.313L1025.33 245.3Z" fill="white" fill-opacity="0.8"/>
<path d="M1025.33 245.3C1029.48 248.022 1034 250.425 1038.87 252.511C1043.75 254.597 1048.8 256.321 1054.04 257.681C1059.37 259.042 1064.79 260.039 1070.3 260.674C1075.8 261.4 1081.27 261.763 1086.68 261.763C1105.11 261.763 1119.28 257.772 1129.21 249.79C1139.24 241.899 1144.25 230.017 1144.25 214.145V208.703C1140.73 211.152 1136.75 213.419 1132.33 215.505C1128 217.501 1123.3 219.224 1118.24 220.675C1113.28 222.126 1107.99 223.26 1102.4 224.076C1096.89 224.802 1091.29 225.165 1085.6 225.165C1073.41 225.165 1062.48 223.396 1052.82 219.859C1043.25 216.231 1035.12 210.97 1028.44 204.077C1021.85 197.093 1016.79 188.522 1013.27 178.363C1009.75 168.205 1007.99 156.595 1007.99 143.534V64.6244H1047.95V132.378C1047.95 151.788 1051.6 166.119 1058.92 175.37C1066.32 184.531 1077.97 189.111 1093.86 189.111C1105.06 189.111 1114.95 187.161 1123.53 183.261C1132.19 179.27 1139.1 174.191 1144.25 168.023V64.6244H1184.34V206.798C1184.34 222.126 1182.17 235.414 1177.84 246.661C1173.51 257.999 1167.19 267.386 1158.88 274.824C1150.66 282.261 1140.55 287.794 1128.54 291.422C1116.53 295.141 1102.89 297 1087.63 297C1072.73 297 1058.83 295.413 1045.91 292.238C1033 289.064 1021.17 284.755 1010.43 279.313L1025.33 245.3Z" fill="url(#paint1_linear_2032_39)" fill-opacity="0.6"/>
<path d="M1236.22 64.6244H1276.31V78.2295C1286.97 72.1525 1297.12 67.8896 1306.79 65.4407C1316.54 62.9918 1326.06 61.7673 1335.37 61.7673C1347.56 61.7673 1358.84 63.5813 1369.23 67.2093C1379.61 70.7467 1388.6 76.0527 1396.18 83.1273C1403.77 90.202 1409.68 99.0453 1413.92 109.657C1418.26 120.179 1420.43 132.378 1420.43 146.255V225.165H1380.47V152.786C1380.47 143.988 1379.21 136.142 1376.68 129.249C1374.24 122.265 1370.67 116.415 1365.98 111.698C1361.37 106.891 1355.73 103.263 1349.05 100.814C1342.45 98.2744 1335.05 97.0046 1326.83 97.0046C1322.5 97.0046 1318.03 97.4581 1313.42 98.3651C1308.91 99.2721 1304.44 100.587 1300.01 102.311C1295.68 103.943 1291.48 106.029 1287.42 108.569C1283.35 111.018 1279.65 113.83 1276.31 117.004V225.165H1236.22V64.6244Z" fill="white" fill-opacity="0.8"/>
<path d="M1236.22 64.6244H1276.31V78.2295C1286.97 72.1525 1297.12 67.8896 1306.79 65.4407C1316.54 62.9918 1326.06 61.7673 1335.37 61.7673C1347.56 61.7673 1358.84 63.5813 1369.23 67.2093C1379.61 70.7467 1388.6 76.0527 1396.18 83.1273C1403.77 90.202 1409.68 99.0453 1413.92 109.657C1418.26 120.179 1420.43 132.378 1420.43 146.255V225.165H1380.47V152.786C1380.47 143.988 1379.21 136.142 1376.68 129.249C1374.24 122.265 1370.67 116.415 1365.98 111.698C1361.37 106.891 1355.73 103.263 1349.05 100.814C1342.45 98.2744 1335.05 97.0046 1326.83 97.0046C1322.5 97.0046 1318.03 97.4581 1313.42 98.3651C1308.91 99.2721 1304.44 100.587 1300.01 102.311C1295.68 103.943 1291.48 106.029 1287.42 108.569C1283.35 111.018 1279.65 113.83 1276.31 117.004V225.165H1236.22V64.6244Z" fill="url(#paint2_linear_2032_39)" fill-opacity="0.6"/>
<path fill-rule="evenodd" clip-rule="evenodd" d="M1510.9 225.165V64.6244H1470.81V225.165H1510.9Z" fill="white" fill-opacity="0.8"/>
<path fill-rule="evenodd" clip-rule="evenodd" d="M1510.9 225.165V64.6244H1470.81V225.165H1510.9Z" fill="url(#paint3_linear_2032_39)" fill-opacity="0.6"/>
<path d="M1490.86 42.7201C1486.89 42.7201 1483.27 42.1759 1480.02 41.0875C1476.86 39.9084 1474.15 38.3665 1471.9 36.4618C1469.64 34.4663 1467.88 32.1988 1466.61 29.6592C1465.44 27.0289 1464.85 24.2625 1464.85 21.3601C1464.85 18.3669 1465.44 15.6005 1466.61 13.0609C1467.88 10.4306 1469.64 8.16308 1471.9 6.25836C1474.15 4.35364 1476.86 2.85708 1480.02 1.76867C1483.27 0.589556 1486.89 0 1490.86 0C1494.92 0 1498.53 0.589556 1501.69 1.76867C1504.95 2.85708 1507.7 4.35364 1509.96 6.25836C1512.21 8.16308 1513.93 10.4306 1515.1 13.0609C1516.37 15.6005 1517 18.3669 1517 21.3601C1517 24.2625 1516.37 27.0289 1515.1 29.6592C1513.93 32.1988 1512.21 34.4663 1509.96 36.4618C1507.7 38.3665 1504.95 39.9084 1501.69 41.0875C1498.53 42.1759 1494.92 42.7201 1490.86 42.7201Z" fill="white" fill-opacity="0.8"/>
<path d="M1490.86 42.7201C1486.89 42.7201 1483.27 42.1759 1480.02 41.0875C1476.86 39.9084 1474.15 38.3665 1471.9 36.4618C1469.64 34.4663 1467.88 32.1988 1466.61 29.6592C1465.44 27.0289 1464.85 24.2625 1464.85 21.3601C1464.85 18.3669 1465.44 15.6005 1466.61 13.0609C1467.88 10.4306 1469.64 8.16308 1471.9 6.25836C1474.15 4.35364 1476.86 2.85708 1480.02 1.76867C1483.27 0.589556 1486.89 0 1490.86 0C1494.92 0 1498.53 0.589556 1501.69 1.76867C1504.95 2.85708 1507.7 4.35364 1509.96 6.25836C1512.21 8.16308 1513.93 10.4306 1515.1 13.0609C1516.37 15.6005 1517 18.3669 1517 21.3601C1517 24.2625 1516.37 27.0289 1515.1 29.6592C1513.93 32.1988 1512.21 34.4663 1509.96 36.4618C1507.7 38.3665 1504.95 39.9084 1501.69 41.0875C1498.53 42.1759 1494.92 42.7201 1490.86 42.7201Z" fill="url(#paint4_linear_2032_39)" fill-opacity="0.6"/>
<path d="M0 1H46.4355V127.123C46.4355 137.475 47.8516 146.703 50.6836 154.809C53.5156 162.816 57.7148 169.604 63.2812 175.17C68.9453 180.736 75.9277 184.984 84.2285 187.914C92.5293 190.746 102.197 192.162 113.232 192.162C124.17 192.162 133.789 190.746 142.09 187.914C150.488 184.984 157.471 180.736 163.037 175.17C168.701 169.604 172.949 162.816 175.781 154.809C178.613 146.703 180.029 137.475 180.029 127.123V1H226.465V132.689C226.465 147.729 223.926 161.4 218.848 173.705C213.77 186.01 206.396 196.557 196.729 205.346C187.061 214.135 175.195 220.922 161.133 225.707C147.168 230.492 131.201 232.885 113.232 232.885C95.2637 232.885 79.248 230.492 65.1855 225.707C51.2207 220.922 39.4043 214.135 29.7363 205.346C20.0684 196.557 12.6953 186.01 7.61719 173.705C2.53906 161.4 0 147.729 0 132.689V1Z" fill="white" fill-opacity="0.8"/>
<path d="M0 1H46.4355V127.123C46.4355 137.475 47.8516 146.703 50.6836 154.809C53.5156 162.816 57.7148 169.604 63.2812 175.17C68.9453 180.736 75.9277 184.984 84.2285 187.914C92.5293 190.746 102.197 192.162 113.232 192.162C124.17 192.162 133.789 190.746 142.09 187.914C150.488 184.984 157.471 180.736 163.037 175.17C168.701 169.604 172.949 162.816 175.781 154.809C178.613 146.703 180.029 137.475 180.029 127.123V1H226.465V132.689C226.465 147.729 223.926 161.4 218.848 173.705C213.77 186.01 206.396 196.557 196.729 205.346C187.061 214.135 175.195 220.922 161.133 225.707C147.168 230.492 131.201 232.885 113.232 232.885C95.2637 232.885 79.248 230.492 65.1855 225.707C51.2207 220.922 39.4043 214.135 29.7363 205.346C20.0684 196.557 12.6953 186.01 7.61719 173.705C2.53906 161.4 0 147.729 0 132.689V1Z" fill="url(#paint5_linear_2032_39)" fill-opacity="0.6"/>
<path d="M284.619 176.928C296.338 183.959 309.229 189.135 323.291 192.455C337.354 195.775 351.758 197.436 366.504 197.436C376.465 197.436 384.766 196.752 391.406 195.385C398.047 194.018 403.369 192.26 407.373 190.111C411.377 187.963 414.209 185.521 415.869 182.787C417.529 180.053 418.359 177.27 418.359 174.438C418.359 170.336 416.553 166.82 412.939 163.891C409.424 160.961 403.564 159.496 395.361 159.496C391.553 159.496 387.451 159.74 383.057 160.229C378.662 160.717 374.023 161.254 369.141 161.84C364.355 162.328 359.326 162.816 354.053 163.305C348.877 163.793 343.604 164.037 338.232 164.037C326.514 164.037 316.504 162.768 308.203 160.229C300 157.689 293.311 154.223 288.135 149.828C282.959 145.434 279.199 140.258 276.855 134.301C274.512 128.246 273.34 121.752 273.34 114.818C273.34 106.029 275.391 97.9238 279.492 90.502C283.594 83.0801 289.453 76.6836 297.07 71.3125C304.688 65.8438 313.867 61.5957 324.609 58.5684C335.449 55.541 347.51 54.0273 360.791 54.0273C367.725 54.0273 374.951 54.4668 382.471 55.3457C390.088 56.127 397.559 57.2012 404.883 58.5684C412.207 59.9355 419.238 61.5469 425.977 63.4023C432.715 65.1602 438.672 67.0645 443.848 69.1152L430.225 102.807C419.189 98.7051 408.154 95.4824 397.119 93.1387C386.182 90.6973 374.902 89.4766 363.281 89.4766C355.176 89.4766 348.291 90.1113 342.627 91.3809C337.061 92.5527 332.52 94.1641 329.004 96.2148C325.488 98.168 322.9 100.463 321.24 103.1C319.678 105.639 318.896 108.324 318.896 111.156C318.896 113.207 319.287 115.062 320.068 116.723C320.947 118.383 322.314 119.848 324.17 121.117C326.123 122.289 328.613 123.217 331.641 123.9C334.766 124.486 338.574 124.779 343.066 124.779C347.168 124.779 351.514 124.535 356.104 124.047C360.693 123.559 365.479 123.07 370.459 122.582C375.439 121.996 380.566 121.459 385.84 120.971C391.211 120.482 396.68 120.238 402.246 120.238C412.598 120.238 421.631 121.459 429.346 123.9C437.158 126.342 443.604 129.76 448.682 134.154C453.76 138.549 457.568 143.725 460.107 149.682C462.646 155.639 463.916 162.133 463.916 169.164C463.916 178.246 461.816 186.693 457.617 194.506C453.418 202.318 447.168 209.105 438.867 214.867C430.566 220.531 420.215 224.975 407.812 228.197C395.508 231.42 381.25 233.031 365.039 233.031C355.078 233.031 345.459 232.396 336.182 231.127C326.904 229.955 318.066 228.344 309.668 226.293C301.27 224.145 293.359 221.654 285.938 218.822C278.613 215.99 271.924 212.963 265.869 209.74L284.619 176.928Z" fill="white" fill-opacity="0.8"/>
<path d="M284.619 176.928C296.338 183.959 309.229 189.135 323.291 192.455C337.354 195.775 351.758 197.436 366.504 197.436C376.465 197.436 384.766 196.752 391.406 195.385C398.047 194.018 403.369 192.26 407.373 190.111C411.377 187.963 414.209 185.521 415.869 182.787C417.529 180.053 418.359 177.27 418.359 174.438C418.359 170.336 416.553 166.82 412.939 163.891C409.424 160.961 403.564 159.496 395.361 159.496C391.553 159.496 387.451 159.74 383.057 160.229C378.662 160.717 374.023 161.254 369.141 161.84C364.355 162.328 359.326 162.816 354.053 163.305C348.877 163.793 343.604 164.037 338.232 164.037C326.514 164.037 316.504 162.768 308.203 160.229C300 157.689 293.311 154.223 288.135 149.828C282.959 145.434 279.199 140.258 276.855 134.301C274.512 128.246 273.34 121.752 273.34 114.818C273.34 106.029 275.391 97.9238 279.492 90.502C283.594 83.0801 289.453 76.6836 297.07 71.3125C304.688 65.8438 313.867 61.5957 324.609 58.5684C335.449 55.541 347.51 54.0273 360.791 54.0273C367.725 54.0273 374.951 54.4668 382.471 55.3457C390.088 56.127 397.559 57.2012 404.883 58.5684C412.207 59.9355 419.238 61.5469 425.977 63.4023C432.715 65.1602 438.672 67.0645 443.848 69.1152L430.225 102.807C419.189 98.7051 408.154 95.4824 397.119 93.1387C386.182 90.6973 374.902 89.4766 363.281 89.4766C355.176 89.4766 348.291 90.1113 342.627 91.3809C337.061 92.5527 332.52 94.1641 329.004 96.2148C325.488 98.168 322.9 100.463 321.24 103.1C319.678 105.639 318.896 108.324 318.896 111.156C318.896 113.207 319.287 115.062 320.068 116.723C320.947 118.383 322.314 119.848 324.17 121.117C326.123 122.289 328.613 123.217 331.641 123.9C334.766 124.486 338.574 124.779 343.066 124.779C347.168 124.779 351.514 124.535 356.104 124.047C360.693 123.559 365.479 123.07 370.459 122.582C375.439 121.996 380.566 121.459 385.84 120.971C391.211 120.482 396.68 120.238 402.246 120.238C412.598 120.238 421.631 121.459 429.346 123.9C437.158 126.342 443.604 129.76 448.682 134.154C453.76 138.549 457.568 143.725 460.107 149.682C462.646 155.639 463.916 162.133 463.916 169.164C463.916 178.246 461.816 186.693 457.617 194.506C453.418 202.318 447.168 209.105 438.867 214.867C430.566 220.531 420.215 224.975 407.812 228.197C395.508 231.42 381.25 233.031 365.039 233.031C355.078 233.031 345.459 232.396 336.182 231.127C326.904 229.955 318.066 228.344 309.668 226.293C301.27 224.145 293.359 221.654 285.938 218.822C278.613 215.99 271.924 212.963 265.869 209.74L284.619 176.928Z" fill="url(#paint6_linear_2032_39)" fill-opacity="0.6"/>
<path d="M494.824 142.943C494.824 131.225 497.217 120.043 502.002 109.398C506.787 98.6562 513.672 89.1836 522.656 80.9805C531.641 72.7773 542.627 66.2344 555.615 61.3516C568.701 56.4688 583.545 54.0273 600.146 54.0273C616.65 54.0273 631.494 56.5176 644.678 61.498C657.959 66.3809 669.189 73.1191 678.369 81.7129C687.646 90.3066 694.727 100.414 699.609 112.035C704.59 123.656 707.08 136.107 707.08 149.389C707.08 151.049 707.031 152.855 706.934 154.809C706.934 156.664 706.836 158.373 706.641 159.936H543.164C545.02 165.111 547.998 169.848 552.1 174.145C556.299 178.441 561.523 182.152 567.773 185.277C574.023 188.402 581.25 190.844 589.453 192.602C597.656 194.262 606.738 195.092 616.699 195.092C626.66 195.092 636.572 194.066 646.436 192.016C656.299 189.867 665.723 187.182 674.707 183.959L689.355 217.064C683.691 219.701 677.93 222.045 672.07 224.096C666.309 226.049 660.254 227.709 653.906 229.076C647.656 230.346 641.064 231.322 634.131 232.006C627.295 232.689 620.068 233.031 612.451 233.031C593.018 233.031 575.977 230.688 561.328 226C546.68 221.312 534.424 214.916 524.561 206.811C514.697 198.705 507.275 189.184 502.295 178.246C497.314 167.309 494.824 155.541 494.824 142.943ZM661.084 126.098C659.521 121.312 657.08 116.869 653.76 112.768C650.537 108.568 646.484 104.955 641.602 101.928C636.719 98.8027 631.055 96.3613 624.609 94.6035C618.164 92.8457 611.084 91.9668 603.369 91.9668C595.166 91.9668 587.695 92.8945 580.957 94.75C574.219 96.6055 568.311 99.0957 563.232 102.221C558.154 105.346 553.906 108.959 550.488 113.061C547.168 117.162 544.727 121.508 543.164 126.098H661.084Z" fill="white" fill-opacity="0.8"/>
<path d="M494.824 142.943C494.824 131.225 497.217 120.043 502.002 109.398C506.787 98.6562 513.672 89.1836 522.656 80.9805C531.641 72.7773 542.627 66.2344 555.615 61.3516C568.701 56.4688 583.545 54.0273 600.146 54.0273C616.65 54.0273 631.494 56.5176 644.678 61.498C657.959 66.3809 669.189 73.1191 678.369 81.7129C687.646 90.3066 694.727 100.414 699.609 112.035C704.59 123.656 707.08 136.107 707.08 149.389C707.08 151.049 707.031 152.855 706.934 154.809C706.934 156.664 706.836 158.373 706.641 159.936H543.164C545.02 165.111 547.998 169.848 552.1 174.145C556.299 178.441 561.523 182.152 567.773 185.277C574.023 188.402 581.25 190.844 589.453 192.602C597.656 194.262 606.738 195.092 616.699 195.092C626.66 195.092 636.572 194.066 646.436 192.016C656.299 189.867 665.723 187.182 674.707 183.959L689.355 217.064C683.691 219.701 677.93 222.045 672.07 224.096C666.309 226.049 660.254 227.709 653.906 229.076C647.656 230.346 641.064 231.322 634.131 232.006C627.295 232.689 620.068 233.031 612.451 233.031C593.018 233.031 575.977 230.688 561.328 226C546.68 221.312 534.424 214.916 524.561 206.811C514.697 198.705 507.275 189.184 502.295 178.246C497.314 167.309 494.824 155.541 494.824 142.943ZM661.084 126.098C659.521 121.312 657.08 116.869 653.76 112.768C650.537 108.568 646.484 104.955 641.602 101.928C636.719 98.8027 631.055 96.3613 624.609 94.6035C618.164 92.8457 611.084 91.9668 603.369 91.9668C595.166 91.9668 587.695 92.8945 580.957 94.75C574.219 96.6055 568.311 99.0957 563.232 102.221C558.154 105.346 553.906 108.959 550.488 113.061C547.168 117.162 544.727 121.508 543.164 126.098H661.084Z" fill="url(#paint7_linear_2032_39)" fill-opacity="0.6"/>
<defs>
<linearGradient id="paint0_linear_2032_39" x1="732.025" y1="39.0069" x2="777.119" y2="315.347" gradientUnits="userSpaceOnUse">
<stop stop-color="#0050B9"/>
<stop offset="1" stop-color="#EB6300"/>
</linearGradient>
<linearGradient id="paint1_linear_2032_39" x1="732.025" y1="39.0069" x2="777.119" y2="315.347" gradientUnits="userSpaceOnUse">
<stop stop-color="#0050B9"/>
<stop offset="1" stop-color="#EB6300"/>
</linearGradient>
<linearGradient id="paint2_linear_2032_39" x1="732.025" y1="39.0069" x2="777.119" y2="315.347" gradientUnits="userSpaceOnUse">
<stop stop-color="#0050B9"/>
<stop offset="1" stop-color="#EB6300"/>
</linearGradient>
<linearGradient id="paint3_linear_2032_39" x1="732.025" y1="39.0069" x2="777.119" y2="315.347" gradientUnits="userSpaceOnUse">
<stop stop-color="#0050B9"/>
<stop offset="1" stop-color="#EB6300"/>
</linearGradient>
<linearGradient id="paint4_linear_2032_39" x1="732.025" y1="39.0069" x2="777.119" y2="315.347" gradientUnits="userSpaceOnUse">
<stop stop-color="#0050B9"/>
<stop offset="1" stop-color="#EB6300"/>
</linearGradient>
<linearGradient id="paint5_linear_2032_39" x1="732.025" y1="39.0069" x2="777.119" y2="315.347" gradientUnits="userSpaceOnUse">
<stop stop-color="#0050B9"/>
<stop offset="1" stop-color="#EB6300"/>
</linearGradient>
<linearGradient id="paint6_linear_2032_39" x1="732.025" y1="39.0069" x2="777.119" y2="315.347" gradientUnits="userSpaceOnUse">
<stop stop-color="#0050B9"/>
<stop offset="1" stop-color="#EB6300"/>
</linearGradient>
<linearGradient id="paint7_linear_2032_39" x1="732.025" y1="39.0069" x2="777.119" y2="315.347" gradientUnits="userSpaceOnUse">
<stop stop-color="#0050B9"/>
<stop offset="1" stop-color="#EB6300"/>
</linearGradient>
</defs>
</svg>
